<svg width="152" height="40" viewBox="0 0 152 40" fill="none" xmlns="http://www.w3.org/2000/svg">
<path d="M3.74817 25.0199C1.67811 27.1034 1.67811 30.4814 3.74817 32.5649C5.81823 34.6484 9.17445 34.6484 11.2445 32.5649L28.7155 14.9806C30.7855 12.8971 30.7855 9.51906 28.7155 7.43557C26.6454 5.35207 23.2892 5.35207 21.2191 7.43557L3.74817 25.0199Z" fill="#F9F9F9"/>
<path d="M39.4914 28.7906C39.4914 31.7371 41.8646 34.1257 44.7921 34.1257C47.7196 34.1257 50.0928 31.7371 50.0928 28.7906V11.361C50.0928 8.41447 47.7196 6.02586 44.7921 6.02586C41.8646 6.02586 39.4914 8.41447 39.4914 11.361V28.7906Z" fill="#F9F9F9"/>
<path d="M23.2846 25.0194C21.2146 27.1029 21.2146 30.4809 23.2846 32.5644C25.3547 34.6479 28.7109 34.6479 30.7809 32.5644L48.2519 14.9801C50.322 12.8966 50.322 9.51857 48.2519 7.43508C46.1818 5.35159 42.8256 5.35158 40.7556 7.43508L23.2846 25.0194Z" fill="#F9F9F9"/>
<path d="M77.9763 19.8796C77.9532 19.7906 77.9224 19.5429 77.8724 19.1326C77.8301 18.7959 77.7955 18.5134 77.7609 18.2928C77.7148 18.5559 77.6456 18.823 77.561 19.0862C77.4764 19.3494 77.3648 19.6203 77.2341 19.8951L74.5961 25.302C74.4423 25.6194 73.9924 25.6155 73.8424 25.302L71.2006 19.7712C71.0737 19.5119 70.966 19.2604 70.8738 19.0165C70.7815 18.7727 70.7007 18.5327 70.6315 18.2928C70.6276 18.5366 70.6046 18.792 70.5738 19.0591C70.5392 19.3262 70.4892 19.6048 70.42 19.8951L69.2548 25.2788C69.2125 25.4723 69.0433 25.6117 68.8434 25.6117H67.982C67.7128 25.6117 67.5128 25.3601 67.5705 25.0969L69.9086 14.7127C69.997 14.3217 70.5277 14.2637 70.6969 14.6275L73.5809 20.8395C73.6348 20.9556 73.7117 21.1491 73.8232 21.42C73.8232 21.42 73.8232 21.4239 73.8232 21.4278C73.9616 21.7722 74.4462 21.7877 74.5961 21.4471C74.6384 21.3504 74.6846 21.2536 74.7307 21.1491C74.7922 21.0136 74.8422 20.9053 74.873 20.8317L77.684 14.6391C77.8494 14.2714 78.3839 14.3256 78.4762 14.7204L80.868 25.0969C80.9295 25.3601 80.7296 25.6155 80.4604 25.6155H79.5836C79.3875 25.6155 79.2183 25.4801 79.1722 25.2865L77.9686 19.8835L77.9763 19.8796Z" fill="#F9F9F9"/>
<path d="M93.3925 25.3836V14.6162C93.3925 14.384 93.5809 14.1943 93.8116 14.1943H94.8461C95.0768 14.1943 95.2652 14.384 95.2652 14.6162V25.3836C95.2652 25.6158 95.0768 25.8055 94.8461 25.8055H93.8116C93.5809 25.8055 93.3925 25.6158 93.3925 25.3836Z" fill="#F9F9F9"/>
<path d="M112.716 16.2166V25.3817C112.716 25.6139 112.528 25.8036 112.297 25.8036H111.262C111.032 25.8036 110.843 25.6139 110.843 25.3817V16.2166C110.843 15.9844 110.655 15.7948 110.424 15.7948H108.198C107.967 15.7948 107.778 15.6051 107.778 15.3729V14.6182C107.778 14.3859 107.967 14.1963 108.198 14.1963H115.346C115.577 14.1963 115.765 14.3859 115.765 14.6182V15.3729C115.765 15.6051 115.577 15.7948 115.346 15.7948H113.135C112.904 15.7948 112.716 15.9844 112.716 16.2166Z" fill="#F9F9F9"/>
<path d="M128.279 25.3836V14.6162C128.279 14.384 128.467 14.1943 128.698 14.1943H129.732C129.963 14.1943 130.151 14.384 130.151 14.6162V25.3836C130.151 25.6158 129.963 25.8055 129.732 25.8055H128.698C128.467 25.8055 128.279 25.6158 128.279 25.3836Z" fill="#F9F9F9"/>
</svg>
