<svg width="174" height="31" viewBox="0 0 174 31" fill="none" xmlns="http://www.w3.org/2000/svg">
<g clip-path="url(#clip0_286_56)">
<path d="M1.70586 21.0101C-0.561459 23.2948 -0.561459 26.9906 1.70586 29.2753C3.97318 31.56 7.67722 31.56 9.94454 29.2753L29.1606 9.98992C31.428 7.70523 31.428 4.00942 29.1606 1.72474C26.8933 -0.55994 23.1893 -0.55994 20.922 1.72474L1.70586 21.0101Z" fill="#F9F9F9"/>
<path d="M40.9912 25.1315C40.9912 28.3569 43.5953 30.9776 46.8279 30.9776C50.0605 30.9776 52.6645 28.3569 52.6645 25.1315V6.0253C52.6645 2.79986 50.0605 0.179199 46.8279 0.179199C43.5953 0.179199 40.9912 2.79986 40.9912 6.0253V25.1315Z" fill="#F9F9F9"/>
<path d="M23.1897 21.0101C20.9224 23.2948 20.9224 26.9906 23.1897 29.2753C25.4571 31.56 29.1611 31.56 31.4284 29.2753L50.6445 9.98992C52.9118 7.70523 52.9118 4.00942 50.6445 1.72474C48.3772 -0.55994 44.6732 -0.55994 42.4058 1.72474L23.1897 21.0101Z" fill="#F9F9F9"/>
<path d="M89.3682 15.2982C89.3233 15.1638 89.2784 14.7606 89.211 14.111C89.1437 13.5735 89.0988 13.1255 89.0314 12.7671C88.9641 13.1927 88.8519 13.6183 88.7172 14.0439C88.5825 14.4694 88.4029 14.895 88.2008 15.343L83.9805 23.9665C83.7336 24.4817 83.0152 24.4593 82.7683 23.9665L78.5479 15.1414C78.3459 14.7382 78.1663 14.335 78.0316 13.9319C77.8744 13.5511 77.7622 13.1703 77.65 12.7671C77.65 13.1479 77.6051 13.5735 77.5602 13.9991C77.5153 14.4246 77.4255 14.8726 77.3132 15.343L75.45 23.9217C75.3826 24.2353 75.1132 24.4593 74.799 24.4593H73.4296C73.0031 24.4593 72.6888 24.0561 72.7786 23.6306L76.5275 7.05541C76.6622 6.42824 77.5153 6.33865 77.7846 6.92102L82.3866 16.8213C82.4764 17.0005 82.5887 17.3141 82.7683 17.7397C82.9927 18.2996 83.756 18.322 84.0029 17.7845C84.0703 17.6277 84.1376 17.4709 84.2274 17.3141C84.3172 17.0901 84.407 16.9333 84.4519 16.7989L88.9417 6.92102C89.211 6.33865 90.0641 6.42824 90.1988 7.05541L94.0151 23.6082C94.1049 24.0337 93.7906 24.4369 93.3641 24.4369H91.9722C91.658 24.4369 91.3886 24.2129 91.3212 23.9217L89.3906 15.2982H89.3682Z" fill="#F9F9F9"/>
<path d="M114.309 24.2134V6.76468C114.309 6.3839 114.623 6.07031 114.983 6.07031H116.666C117.048 6.07031 117.34 6.3839 117.34 6.76468V24.2134C117.34 24.5942 117.025 24.9077 116.666 24.9077H114.983C114.601 24.9077 114.309 24.5942 114.309 24.2134Z" fill="#F9F9F9"/>
<path d="M145.692 9.36288V24.2133C145.692 24.5941 145.378 24.9077 145.018 24.9077H143.335C142.953 24.9077 142.661 24.5941 142.661 24.2133V9.36288C142.661 8.9821 142.347 8.66852 141.988 8.66852H138.374C137.992 8.66852 137.7 8.35493 137.7 7.97415V6.74222C137.7 6.36144 138.014 6.04785 138.374 6.04785H149.98C150.361 6.04785 150.653 6.36144 150.653 6.74222V7.97415C150.653 8.35493 150.339 8.66852 149.98 8.66852H146.388C146.006 8.66852 145.714 8.9821 145.714 9.36288H145.692Z" fill="#F9F9F9"/>
<path d="M170.947 24.2134V6.76468C170.947 6.3839 171.261 6.07031 171.62 6.07031H173.304C173.686 6.07031 173.977 6.3839 173.977 6.76468V24.2134C173.977 24.5942 173.663 24.9077 173.304 24.9077H171.62C171.239 24.9077 170.947 24.5942 170.947 24.2134Z" fill="#F9F9F9"/>
</g>
<defs>
<clipPath id="clip0_286_56">
<rect width="174" height="31" fill="white"/>
</clipPath>
</defs>
</svg>
