<svg width="16" height="16" viewBox="0 0 16 16" fill="none" xmlns="http://www.w3.org/2000/svg">
<path d="M10.6669 6.00065V4.00065C10.6669 2.52789 9.47301 1.33398 8.00025 1.33398C6.52749 1.33398 5.33358 2.52789 5.33358 4.00065V6.00065M2.39492 6.90196L1.99492 11.1686C1.88119 12.3818 1.82432 12.9883 2.02562 13.4568C2.20245 13.8684 2.51233 14.2087 2.90559 14.4232C3.35327 14.6673 3.96249 14.6673 5.18095 14.6673H10.8195C12.038 14.6673 12.6472 14.6673 13.0949 14.4232C13.4882 14.2087 13.798 13.8684 13.9749 13.4568C14.1762 12.9883 14.1193 12.3818 14.0056 11.1686L13.6056 6.90196C13.5095 5.87755 13.4615 5.36534 13.2311 4.97809C13.0282 4.63704 12.7285 4.36406 12.37 4.19388C11.9629 4.00065 11.4485 4.00065 10.4196 4.00065L5.58095 4.00065C4.55204 4.00065 4.03759 4.00065 3.63053 4.19388C3.27203 4.36406 2.97225 4.63704 2.76936 4.97809C2.53898 5.36534 2.49096 5.87755 2.39492 6.90196Z" stroke="#D5D5D5" stroke-linecap="round" stroke-linejoin="round"/>
</svg>
