<svg width="16" height="16" viewBox="0 0 16 16" fill="none" xmlns="http://www.w3.org/2000/svg">
<path d="M6.26341 12.9147L6.65304 13.791C6.76887 14.0519 6.95789 14.2735 7.19719 14.4291C7.43649 14.5846 7.71578 14.6674 8.00119 14.6673C8.2866 14.6674 8.56589 14.5846 8.80519 14.4291C9.04449 14.2735 9.23351 14.0519 9.34934 13.791L9.73897 12.9147C9.87767 12.6038 10.111 12.3446 10.4056 12.174C10.7022 12.0029 11.0452 11.9301 11.3856 11.9658L12.339 12.0673C12.6227 12.0973 12.9091 12.0444 13.1634 11.9149C13.4177 11.7854 13.629 11.5849 13.7716 11.3377C13.9143 11.0907 13.9824 10.8075 13.9674 10.5226C13.9524 10.2376 13.855 9.96318 13.6871 9.7325L13.1227 8.95695C12.9217 8.67874 12.8143 8.34386 12.816 8.00065C12.8159 7.65838 12.9243 7.32488 13.1256 7.04806L13.6901 6.2725C13.858 6.04182 13.9554 5.76736 13.9703 5.48243C13.9853 5.1975 13.9173 4.91434 13.7745 4.66732C13.6319 4.42014 13.4207 4.21964 13.1664 4.09014C12.9121 3.96063 12.6257 3.90767 12.3419 3.93769L11.3886 4.03917C11.0482 4.07492 10.7051 4.00207 10.4086 3.83102C10.1133 3.65949 9.87998 3.39889 9.74193 3.08658L9.34934 2.21028C9.23351 1.94943 9.04449 1.72779 8.80519 1.57225C8.56589 1.41671 8.2866 1.33394 8.00119 1.33398C7.71578 1.33394 7.43649 1.41671 7.19719 1.57225C6.95789 1.72779 6.76887 1.94943 6.65304 2.21028L6.26341 3.08658C6.12536 3.39889 5.89199 3.65949 5.59675 3.83102C5.30022 4.00207 4.95719 4.07492 4.61675 4.03917L3.66045 3.93769C3.37667 3.90767 3.09028 3.96063 2.83599 4.09014C2.58171 4.21964 2.37046 4.42014 2.22786 4.66732C2.08507 4.91434 2.01705 5.1975 2.03203 5.48243C2.04702 5.76736 2.14438 6.04182 2.3123 6.2725L2.87675 7.04806C3.07804 7.32488 3.18644 7.65838 3.18638 8.00065C3.18644 8.34293 3.07804 8.67642 2.87675 8.95324L2.3123 9.7288C2.14438 9.95948 2.04702 10.2339 2.03203 10.5189C2.01705 10.8038 2.08507 11.087 2.22786 11.334C2.3706 11.581 2.58188 11.7814 2.83612 11.9109C3.09037 12.0404 3.37669 12.0934 3.66045 12.0636L4.61378 11.9621C4.95423 11.9264 5.29726 11.9992 5.59378 12.1703C5.89013 12.3413 6.12459 12.602 6.26341 12.9147Z" stroke="#D5D5D5" stroke-linecap="round" stroke-linejoin="round"/>
<path d="M8 10.0007C9.10457 10.0007 10 9.10522 10 8.00065C10 6.89608 9.10457 6.00065 8 6.00065C6.89543 6.00065 6 6.89608 6 8.00065C6 9.10522 6.89543 10.0007 8 10.0007Z" stroke="#D5D5D5" stroke-linecap="round" stroke-linejoin="round"/>
</svg>
