<svg width="16" height="16" viewBox="0 0 16 16" fill="none" xmlns="http://www.w3.org/2000/svg">
<g clip-path="url(#clip0_19399_7954)">
<path d="M3.33343 9.33398H12.0906C12.7658 9.33398 13.1034 9.33398 13.3722 9.2081C13.6089 9.0972 13.8079 8.91915 13.9442 8.69609C14.099 8.44287 14.1363 8.10732 14.2109 7.43624L14.6009 3.92621C14.6236 3.72124 14.635 3.61875 14.6021 3.53942C14.5731 3.46975 14.5214 3.41196 14.4554 3.3755C14.3802 3.33398 14.277 3.33398 14.0708 3.33398H3.0001M1.33334 1.33398H2.16563C2.34204 1.33398 2.43025 1.33398 2.49926 1.36753C2.56001 1.39707 2.61036 1.44437 2.64363 1.50316C2.68142 1.56994 2.68692 1.65798 2.69792 1.83405L3.30208 11.5006C3.31309 11.6767 3.31859 11.7647 3.35638 11.8315C3.38965 11.8903 3.43999 11.9376 3.50074 11.9671C3.56975 12.0007 3.65796 12.0007 3.83438 12.0007H12.6667M5 14.334H5.00667M11 14.334H11.0067M5.33334 14.334C5.33334 14.5181 5.1841 14.6673 5 14.6673C4.81591 14.6673 4.66667 14.5181 4.66667 14.334C4.66667 14.1499 4.81591 14.0007 5 14.0007C5.1841 14.0007 5.33334 14.1499 5.33334 14.334ZM11.3333 14.334C11.3333 14.5181 11.1841 14.6673 11 14.6673C10.8159 14.6673 10.6667 14.5181 10.6667 14.334C10.6667 14.1499 10.8159 14.0007 11 14.0007C11.1841 14.0007 11.3333 14.1499 11.3333 14.334Z" stroke="#D5D5D5" stroke-linecap="round" stroke-linejoin="round"/>
</g>
<defs>
<clipPath id="clip0_19399_7954">
<rect width="16" height="16" fill="white"/>
</clipPath>
</defs>
</svg>
