<svg width="16" height="16" viewBox="0 0 16 16" fill="none" xmlns="http://www.w3.org/2000/svg">
<path d="M14.6667 14V12.6667C14.6667 11.4241 13.8168 10.38 12.6667 10.084M10.3333 2.19384C11.3106 2.58943 12 3.54754 12 4.66667C12 5.78579 11.3106 6.7439 10.3333 7.13949M11.3333 14C11.3333 12.7575 11.3333 12.1362 11.1303 11.6462C10.8597 10.9928 10.3406 10.4736 9.68716 10.203C9.1971 10 8.57585 10 7.33334 10H5.33334C4.09082 10 3.46957 10 2.97951 10.203C2.32611 10.4736 1.80697 10.9928 1.53632 11.6462C1.33334 12.1362 1.33334 12.7575 1.33334 14M9 4.66667C9 6.13943 7.80609 7.33333 6.33334 7.33333C4.86058 7.33333 3.66667 6.13943 3.66667 4.66667C3.66667 3.19391 4.86058 2 6.33334 2C7.80609 2 9 3.19391 9 4.66667Z" stroke="#D5D5D5" stroke-linecap="round" stroke-linejoin="round"/>
</svg>
