<svg width="66" height="67" viewBox="0 0 66 67" fill="none" xmlns="http://www.w3.org/2000/svg">
<g clip-path="url(#clip0_245_153)">
<path d="M16.731 32.2034C16.8428 32.2034 16.9546 32.1841 17.0636 32.1453L25.3716 29.1735C25.7294 31.7137 26.733 34.1598 28.2901 36.2158C28.6031 36.6281 29.0253 36.9407 29.5005 37.1289C28.9051 38.7643 29.07 40.585 29.9981 42.1235L32.1198 45.6322C32.2959 45.9255 32.6146 46.1026 32.9584 46.1026H33.1317C33.4756 46.1026 33.7942 45.9228 33.9704 45.6322L36.0921 42.1235C37.0202 40.5878 37.1823 38.7726 36.5925 37.14C37.0761 36.9518 37.5066 36.6364 37.8225 36.2158C39.3739 34.1709 40.3747 31.7386 40.7353 29.215L48.9315 32.1453C49.0405 32.1841 49.1523 32.2034 49.2641 32.2034C49.5465 32.2034 49.8204 32.0845 50.0077 31.8631C50.2733 31.5559 50.3152 31.1187 50.1195 30.7645L49.7533 30.1087C47.3856 25.8751 44.361 22.0731 40.7632 18.7996C40.2153 12.153 37.8532 5.8412 33.8446 0.395534C33.6601 0.146494 33.3665 -0.00292969 33.0535 -0.00292969C32.7404 -0.00292969 32.4469 0.143727 32.2624 0.395534C28.2789 5.808 25.9223 12.0755 25.3549 18.6806C21.6984 21.979 18.6319 25.8225 16.2334 30.1087L15.8672 30.7645C15.6687 31.1187 15.7134 31.5559 15.979 31.8631C16.1691 32.0845 16.443 32.2034 16.7226 32.2034H16.731ZM34.4176 41.1301L33.0479 43.3936L31.6781 41.1301C30.9876 39.9873 30.9261 38.6121 31.488 37.4333H34.6049C35.1668 38.6121 35.1081 39.9901 34.4148 41.1301H34.4176ZM38.9378 27.1064C38.9378 29.9538 37.9874 32.7762 36.2626 35.0536C36.0977 35.2722 35.8349 35.4022 35.561 35.4022H30.5599C30.286 35.4022 30.0232 35.2722 29.8583 35.0536C28.1335 32.7762 27.1831 29.9538 27.1831 27.1064V21.8102C27.1831 18.2877 27.7198 14.8398 28.7569 11.5497C30.1183 11.9648 31.53 12.1779 32.9444 12.1779C34.4316 12.1779 35.9188 11.9454 37.3472 11.4833C38.1272 13.935 38.6247 16.4752 38.8316 19.0707C38.8064 19.2174 38.8204 19.3641 38.8624 19.5052C38.9127 20.2689 38.9434 21.0382 38.9434 21.8102V27.1064H38.9378ZM47.0949 29.428L40.8946 27.2116C40.8946 27.1784 40.8946 27.1424 40.8946 27.1092V21.813C40.8946 21.7465 40.8918 21.6801 40.8918 21.6137C43.2596 23.9741 45.3394 26.589 47.0949 29.428ZM33.0591 2.65903C34.5546 4.86441 35.7706 7.21092 36.7043 9.65428C34.3282 10.4152 31.7704 10.4374 29.3887 9.72069C30.3251 7.25243 31.5495 4.88655 33.0591 2.65903ZM25.2319 21.492C25.2319 21.5999 25.2263 21.705 25.2263 21.813V27.1092C25.2263 27.1286 25.2263 27.1507 25.2263 27.1701L18.9086 29.428C20.6921 26.5392 22.8138 23.8855 25.2319 21.492Z" fill="white"/>
<path d="M21.2031 32.8264V36.3711C21.2031 36.9051 21.642 37.3396 22.1815 37.3396C22.721 37.3396 23.1599 36.9051 23.1599 36.3711V32.8264C23.1599 32.2923 22.721 31.8579 22.1815 31.8579C21.642 31.8579 21.2031 32.2923 21.2031 32.8264Z" fill="white"/>
<path d="M42.96 32.8264V36.3711C42.96 36.9051 43.3988 37.3396 43.9384 37.3396C44.4779 37.3396 44.9168 36.9051 44.9168 36.3711V32.8264C44.9168 32.2923 44.4779 31.8579 43.9384 31.8579C43.3988 31.8579 42.96 32.2923 42.96 32.8264Z" fill="white"/>
<path d="M24.8291 41.7834V46.0475C24.8291 46.5816 25.268 47.016 25.8075 47.016C26.347 47.016 26.7859 46.5816 26.7859 46.0475V41.7834C26.7859 41.2494 26.347 40.8149 25.8075 40.8149C25.268 40.8149 24.8291 41.2494 24.8291 41.7834Z" fill="white"/>
<path d="M39.334 41.7834V46.0475C39.334 46.5816 39.7729 47.016 40.3124 47.016C40.8519 47.016 41.2908 46.5816 41.2908 46.0475V41.7834C41.2908 41.2494 40.8519 40.8149 40.3124 40.8149C39.7729 40.8149 39.334 41.2494 39.334 41.7834Z" fill="white"/>
<path d="M5.00379 54.8857C5.54331 54.8857 5.98219 54.4512 5.98219 53.9172V24.4032C5.98219 23.9023 6.39312 23.4956 6.89909 23.4956H14.3377C14.8772 23.4956 15.3161 23.0611 15.3161 22.5271C15.3161 21.993 14.8772 21.5586 14.3377 21.5586H6.89909C5.31408 21.5586 4.02539 22.8342 4.02539 24.4032V53.9172C4.02539 54.4512 4.46427 54.8857 5.00379 54.8857Z" fill="white"/>
<path d="M52.3554 23.4985H59.1035C59.6095 23.4985 60.0204 23.9053 60.0204 24.4061V53.9201C60.0204 54.4541 60.4593 54.8886 60.9988 54.8886C61.5383 54.8886 61.9772 54.4541 61.9772 53.9201V24.4061C61.9772 22.8372 60.6885 21.5615 59.1035 21.5615H52.3554C51.8158 21.5615 51.377 21.996 51.377 22.53C51.377 23.0641 51.8158 23.4985 52.3554 23.4985Z" fill="white"/>
<path d="M65.0216 56.0145H41.1571C40.8999 56.0145 40.6567 56.1141 40.4722 56.2912L37.9451 58.7401H28.0521L25.5222 56.2884C25.3405 56.1113 25.0945 56.0117 24.8374 56.0117H0.978399C0.438882 56.0117 0 56.4462 0 56.9802V62.1602C0 64.8277 2.19161 66.9944 4.88361 66.9944H61.1136C63.8084 66.9944 66 64.825 66 62.1602V56.9802C66 56.4462 65.5611 56.0117 65.0216 56.0117V56.0145ZM64.0432 62.163C64.0432 63.7624 62.7294 65.0602 61.1136 65.0602H4.88361C3.26785 65.0602 1.9568 63.7596 1.9568 62.163V57.9515H24.4404L26.9703 60.4031C27.152 60.5802 27.398 60.6798 27.6551 60.6798H38.3449C38.602 60.6798 38.8452 60.5802 39.0297 60.4031L41.5568 57.9542H64.0432V62.1658V62.163Z" fill="white"/>
</g>
<defs>
<clipPath id="clip0_245_153">
<rect width="66" height="67" fill="white"/>
</clipPath>
</defs>
</svg>
