<svg width="67" height="64" viewBox="0 0 67 64" fill="none" xmlns="http://www.w3.org/2000/svg">
<g clip-path="url(#clip0_245_120)">
<path d="M54.5817 16.1966H58.8765C60.1491 16.1966 61.1833 17.2317 61.1833 18.5028V51.1508C61.1833 51.6865 61.6186 52.1222 62.1537 52.1222C62.6888 52.1222 63.1241 51.6865 63.1241 51.1508V18.5028C63.1241 16.1605 61.2194 14.2539 58.8765 14.2539H54.5817C54.0466 14.2539 53.6113 14.6896 53.6113 15.2252C53.6113 15.7609 54.0466 16.1966 54.5817 16.1966Z" fill="white"/>
<path d="M4.84639 52.1192C5.3815 52.1192 5.8168 51.6835 5.8168 51.1479V18.4999C5.8168 17.2288 6.85098 16.1937 8.12361 16.1937H11.52C12.0552 16.1937 12.4905 15.7579 12.4905 15.2223C12.4905 14.6867 12.0552 14.251 11.52 14.251H8.12361C5.78076 14.251 3.87598 16.1576 3.87598 18.4999V51.1479C3.87598 51.6835 4.31128 52.1192 4.84639 52.1192Z" fill="white"/>
<path d="M64.879 52.9517H2.12104C0.951004 52.9517 0 53.9036 0 55.0747V55.1136C0 60.0119 3.98146 63.9999 8.87788 63.9999H58.1221C63.0158 63.9999 67 60.0147 67 55.1136V55.0747C67 53.9036 66.049 52.9517 64.879 52.9517ZM65.0592 55.1136C65.0592 58.9406 61.9483 62.0572 58.1221 62.0572H8.87788C5.05446 62.0572 1.94082 58.9434 1.94082 55.1136V55.0747C1.94082 54.9748 2.02123 54.8943 2.12104 54.8943H64.8762C64.976 54.8943 65.0564 54.9748 65.0564 55.0747V55.1136H65.0592Z" fill="white"/>
<path d="M10.0146 21.9162V48.1201C10.0146 48.6557 10.4499 49.0914 10.9851 49.0914C11.5202 49.0914 11.9555 48.6557 11.9555 48.1201V22.8875H15.0442C15.5793 22.8875 16.0146 22.4518 16.0146 21.9162C16.0146 21.3805 15.5793 20.9448 15.0442 20.9448H10.9851C10.4499 20.9448 10.0146 21.3805 10.0146 21.9162Z" fill="white"/>
<path d="M52.2966 22.8875H55.3853V48.1201C55.3853 48.6557 55.8206 49.0914 56.3557 49.0914C56.8908 49.0914 57.3261 48.6557 57.3261 48.1201V21.9162C57.3261 21.3805 56.8908 20.9448 56.3557 20.9448H52.2966C51.7615 20.9448 51.3262 21.3805 51.3262 21.9162C51.3262 22.4518 51.7615 22.8875 52.2966 22.8875Z" fill="white"/>
<path d="M18.521 8.89169C18.4932 8.93887 18.4683 8.98605 18.4461 9.036C18.4433 9.0471 18.4406 9.05543 18.435 9.06653C18.4184 9.11093 18.4073 9.15534 18.3962 9.19974C18.3934 9.21362 18.3907 9.23027 18.3879 9.24415C18.3796 9.29688 18.374 9.34961 18.374 9.40234C18.374 9.40511 18.374 9.41066 18.374 9.41344C18.374 9.41344 18.374 9.41899 18.374 9.42176L18.7178 26.4784C18.7234 26.817 18.9064 27.1278 19.2003 27.2999L33.676 35.7311C33.676 35.7311 33.6788 35.7311 33.6816 35.7311C33.7065 35.745 33.7315 35.7561 33.7564 35.77C33.7703 35.7755 33.7814 35.7838 33.7953 35.7894C33.8202 35.8005 33.8479 35.8088 33.8757 35.8171C33.8895 35.8227 33.9034 35.8255 33.9145 35.831C33.9505 35.8421 33.9893 35.8477 34.0282 35.8532C34.0309 35.8532 34.0337 35.8532 34.0392 35.8532C34.0808 35.8588 34.1224 35.8616 34.1668 35.8616C34.3137 35.8616 34.4607 35.8255 34.5993 35.7561C34.6159 35.7478 34.6326 35.7394 34.6492 35.7311L49.1222 27.2999C49.4161 27.1306 49.5963 26.8198 49.6046 26.4784L49.9484 9.42176C49.9484 9.42176 49.9484 9.41621 49.9484 9.41344C49.9484 9.41066 49.9484 9.40511 49.9484 9.40234C49.9484 9.34961 49.9429 9.29688 49.9346 9.24415C49.9346 9.23027 49.929 9.21362 49.9263 9.19974C49.9152 9.15256 49.9041 9.10816 49.8875 9.06653C49.8847 9.05543 49.8819 9.0471 49.8764 9.036C49.857 8.98605 49.8292 8.93887 49.8015 8.89169C49.7932 8.88059 49.7849 8.86671 49.7765 8.85561C49.7516 8.81676 49.7211 8.78068 49.6906 8.74738C49.6823 8.73905 49.6767 8.73073 49.6712 8.72518C49.6324 8.68632 49.5908 8.65024 49.5464 8.61972C49.5353 8.61139 49.5242 8.60584 49.5132 8.59751C49.4937 8.58641 49.4771 8.57254 49.4577 8.56144L34.6409 0.127456C34.3442 -0.0418343 33.9782 -0.0418343 33.6816 0.127456L18.862 8.55866C18.8426 8.56976 18.826 8.58364 18.8066 8.59474C18.7955 8.60306 18.7844 8.60861 18.7733 8.61694C18.7289 8.65024 18.6873 8.68355 18.6485 8.7224C18.6402 8.73073 18.6346 8.73905 18.6291 8.7446C18.5986 8.7779 18.5709 8.81398 18.5432 8.85284C18.5348 8.86394 18.5265 8.87781 18.5182 8.88891L18.521 8.89169ZM20.6476 25.8956L20.3481 11.0925L33.1908 18.3997V33.2029L20.6476 25.8956ZM35.1316 33.2001V18.3969L47.9744 11.0897L47.6749 25.8929L35.1316 33.2001ZM34.1612 16.7151L28.4303 13.4542C28.5134 13.4764 28.5994 13.4875 28.6853 13.4875C28.8489 13.4875 29.0125 13.4459 29.165 13.3598L41.5724 6.30238L47.0178 9.39956L34.164 16.7123L34.1612 16.7151ZM34.1612 2.08956L39.6066 5.18673L28.2057 11.6725C27.7399 11.9389 27.5763 12.53 27.8425 12.9963C27.8896 13.0795 27.9478 13.1517 28.0116 13.2155L21.3074 9.40234L34.1612 2.08956Z" fill="white"/>
<path d="M29.6754 17.9308L24.7901 15.1527C24.3243 14.8863 23.731 15.0501 23.4676 15.5163C23.2014 15.9825 23.365 16.5764 23.8308 16.8401L28.7161 19.6181C28.8686 19.7041 29.0322 19.7458 29.1958 19.7458C29.534 19.7458 29.8612 19.5682 30.0414 19.2546C30.3076 18.7883 30.144 18.1944 29.6782 17.9308H29.6754Z" fill="white"/>
</g>
<defs>
<clipPath id="clip0_245_120">
<rect width="67" height="64" fill="white"/>
</clipPath>
</defs>
</svg>
