<svg width="70" height="48" viewBox="0 0 70 48" fill="none" xmlns="http://www.w3.org/2000/svg">
<g clip-path="url(#clip0_245_112)">
<path d="M69.1617 28.6912L66.1656 28.2534C65.891 27.2891 65.5014 26.3663 65.0081 25.4907L66.813 23.0854C67.1017 22.7002 67.0625 22.1626 66.7178 21.8218L63.6684 18.8069C63.3237 18.4661 62.78 18.4273 62.3904 18.7127L59.9577 20.4972C59.0748 20.0095 58.1387 19.6244 57.1634 19.3528L56.7206 16.3906C56.6505 15.9139 56.2357 15.562 55.7508 15.562H51.4403C50.9554 15.562 50.5406 15.9139 50.4706 16.3906L50.0277 19.3528C49.0524 19.6244 48.1191 20.0095 47.2334 20.4972L44.8007 18.7127C44.4111 18.4245 43.8674 18.4661 43.5227 18.8069L40.4734 21.8218C40.1286 22.1626 40.0894 22.7002 40.3781 23.0854L42.183 25.4907C41.6897 26.3663 41.3002 27.2891 41.0255 28.2534L38.0294 28.6912C37.5473 28.7605 37.1914 29.1706 37.1914 29.65V33.9119C37.1914 34.394 37.5473 34.8014 38.0294 34.8706L41.0255 35.3085C41.3002 36.2728 41.6897 37.1955 42.183 38.0712L40.3781 40.4765C40.0894 40.8616 40.1286 41.3992 40.4734 41.7401L43.5227 44.7549C43.8674 45.0958 44.4111 45.1346 44.8007 44.8492L47.2334 43.0646C48.1191 43.5523 49.0524 43.9375 50.0277 44.209L50.4706 47.1713C50.5406 47.6479 50.9554 47.9998 51.4403 47.9998H55.7508C56.2357 47.9998 56.6505 47.6479 56.7206 47.1713L57.1634 44.209C58.1387 43.9375 59.072 43.5523 59.9577 43.0646L62.3904 44.8492C62.78 45.1373 63.3237 45.0958 63.6684 44.7549L66.7178 41.7401C67.0625 41.3992 67.1017 40.8616 66.813 40.4765L65.0081 38.0712C65.5014 37.1955 65.891 36.2728 66.1656 35.3085L69.1617 34.8706C69.6438 34.8014 69.9997 34.3912 69.9997 33.9119V29.65C69.9997 29.1706 69.6438 28.7605 69.1617 28.6912ZM68.0378 33.075L65.2323 33.4851C64.8315 33.5433 64.5092 33.8398 64.4195 34.2305C64.1421 35.4332 63.6656 36.5721 63.0014 37.6167C62.7856 37.9548 62.8024 38.3899 63.0434 38.7113L64.7334 40.9614L62.8809 42.793L60.6051 41.1221C60.28 40.8838 59.8399 40.8672 59.498 41.0805C58.4414 41.7373 57.2895 42.2111 56.0731 42.4827C55.678 42.5714 55.3809 42.89 55.3192 43.2863L54.9044 46.0601H52.2867L51.8719 43.2863C51.813 42.89 51.5132 42.5714 51.118 42.4827C49.9016 42.2084 48.7497 41.7373 47.6931 41.0805C47.3512 40.8672 46.9111 40.8838 46.586 41.1221L44.3102 42.793L42.4577 40.9614L44.1477 38.7113C44.3887 38.3899 44.4055 37.9548 44.1897 37.6167C43.5255 36.5721 43.0462 35.4332 42.7716 34.2305C42.6819 33.8398 42.3596 33.5461 41.9588 33.4851L39.1533 33.075V30.4868L41.9588 30.0767C42.3596 30.0185 42.6819 29.722 42.7716 29.3313C43.049 28.1287 43.5255 26.9898 44.1897 25.9451C44.4055 25.607 44.3887 25.172 44.1477 24.8505L42.4577 22.6005L44.3102 20.7688L46.586 22.4397C46.9111 22.6781 47.3512 22.6947 47.6931 22.4813C48.7497 21.8246 49.9016 21.3507 51.118 21.0792C51.5132 20.9905 51.8102 20.6718 51.8691 20.2756L52.2839 17.5017H54.9016L55.3164 20.2756C55.3753 20.6718 55.6752 20.9905 56.0675 21.0792C57.2839 21.3535 58.4358 21.8246 59.4924 22.4813C59.8343 22.6947 60.2744 22.6781 60.5995 22.4397L62.8753 20.7688L64.7278 22.6005L63.0378 24.8505C62.7968 25.172 62.78 25.607 62.9958 25.9451C63.66 26.9898 64.1393 28.1287 64.4139 29.3313C64.5036 29.722 64.8259 30.0158 65.2267 30.0767L68.0322 30.4868V33.075H68.0378Z" fill="white"/>
<path d="M53.5958 24.0723C49.2965 24.0723 45.7959 27.5305 45.7959 31.7841C45.7959 36.0376 49.2937 39.4959 53.5958 39.4959C57.8979 39.4959 61.3957 36.0376 61.3957 31.7841C61.3957 27.5305 57.8979 24.0723 53.5958 24.0723ZM53.5958 37.5534C50.3783 37.5534 47.7578 34.9652 47.7578 31.7813C47.7578 28.5974 50.3755 26.0092 53.5958 26.0092C56.8161 26.0092 59.4338 28.5974 59.4338 31.7813C59.4338 34.9652 56.8161 37.5534 53.5958 37.5534Z" fill="white"/>
<path d="M57.1892 28.3396C56.7436 28.0348 56.1326 28.1457 55.8243 28.5862L52.8479 32.8453L51.3288 31.3961C50.9392 31.0248 50.317 31.0358 49.9415 31.421C49.5659 31.8062 49.5771 32.4214 49.9667 32.7927L52.3181 35.0345C52.5031 35.209 52.747 35.306 52.9992 35.306C53.0328 35.306 53.0637 35.306 53.0973 35.3005C53.3832 35.2728 53.6438 35.1204 53.8064 34.8876L57.4387 29.6891C57.747 29.2485 57.6349 28.6444 57.1892 28.3396Z" fill="white"/>
<path d="M16.2077 16.1137C15.7677 15.8006 15.1539 15.9004 14.84 16.3354L9.92969 23.0968H5.91063C5.36971 23.0968 4.92969 23.5318 4.92969 24.0666C4.92969 24.6014 5.36971 25.0365 5.91063 25.0365H6.45435L8.1724 35.4889C8.38821 36.794 9.51489 37.7445 10.8546 37.7445H26.1993C27.539 37.7445 28.6657 36.7968 28.8815 35.4889L30.5995 25.0365H31.1433C31.6842 25.0365 32.1242 24.6014 32.1242 24.0666C32.1242 23.5318 31.6842 23.0968 31.1433 23.0968H27.1242L22.2139 16.3354C21.8972 15.9004 21.2862 15.8006 20.8462 16.1137C20.4061 16.4269 20.3052 17.0309 20.622 17.466L24.7111 23.0968H12.3456L16.4347 17.466C16.7514 17.0309 16.6505 16.4241 16.2105 16.1137H16.2077ZM26.9448 35.1785C26.886 35.5415 26.5721 35.8048 26.1993 35.8048H10.8546C10.4818 35.8048 10.1707 35.5415 10.1091 35.1785L8.44146 25.0365H28.6124L26.9448 35.1785Z" fill="white"/>
<path d="M36.7601 43.0842H3.72478C2.75224 43.0842 1.96188 42.3027 1.96188 41.3412V10.8459H62.7859V15.3405C62.7859 15.8753 63.2259 16.3104 63.7668 16.3104C64.3077 16.3104 64.7478 15.8753 64.7478 15.3405V3.68272C64.7478 1.65154 63.0774 0 61.023 0H3.72478C1.6704 0 0 1.65154 0 3.68272V41.3384C0 43.3696 1.6704 45.0211 3.72478 45.0211H36.7601C37.301 45.0211 37.741 44.5861 37.741 44.0513C37.741 43.5165 37.301 43.0814 36.7601 43.0814V43.0842ZM3.72478 1.93973H61.0202C61.9927 1.93973 62.7831 2.72116 62.7831 3.68272V8.90613H1.96188V3.68272C1.96188 2.72116 2.75224 1.93973 3.72478 1.93973Z" fill="white"/>
<path d="M5.37547 6.46463H20.4736C21.0145 6.46463 21.4545 6.02958 21.4545 5.49477C21.4545 4.95996 21.0145 4.5249 20.4736 4.5249H5.37547C4.83455 4.5249 4.39453 4.95996 4.39453 5.49477C4.39453 6.02958 4.83455 6.46463 5.37547 6.46463Z" fill="white"/>
</g>
<defs>
<clipPath id="clip0_245_112">
<rect width="70" height="48" fill="white"/>
</clipPath>
</defs>
</svg>
