<svg width="67" height="60" viewBox="0 0 67 60" fill="none" xmlns="http://www.w3.org/2000/svg">
<g clip-path="url(#clip0_245_136)">
<path d="M34.2471 48.9272C33.7064 48.8465 33.2026 49.2168 33.1205 49.7488L32.26 55.4661H26.0893L25.2288 49.7488C25.1694 49.3505 24.8665 49.0303 24.4674 48.9411C22.1548 48.4232 19.9668 47.5292 17.957 46.2872C17.6117 46.0727 17.1673 46.0894 16.839 46.3289L12.1204 49.7738L7.75844 45.4823L11.2599 40.84C11.5033 40.5169 11.5203 40.0797 11.3023 39.7399C10.0399 37.7655 9.13128 35.61 8.60479 33.3347C8.51421 32.9421 8.18869 32.6469 7.78392 32.5884L1.97272 31.7418V25.6708L7.78392 24.8242C8.18869 24.7657 8.51421 24.4677 8.60479 24.0778C9.13128 21.8026 10.0399 19.6499 11.3023 17.6726C11.5203 17.3329 11.5033 16.8957 11.2599 16.5726L7.75844 11.9302L12.1204 7.63875L16.839 11.0836C17.1673 11.3231 17.6117 11.3398 17.957 11.1254C19.9668 9.88336 22.1548 8.98941 24.4674 8.47143C24.8665 8.38231 25.1666 8.06205 25.2288 7.66382L26.0893 1.94648H32.26L33.1205 7.66382C33.1799 8.06205 33.4828 8.38231 33.8819 8.47143C36.1917 8.98941 38.3826 9.88336 40.3923 11.1254C40.7376 11.3398 41.182 11.3231 41.5104 11.0836L46.229 7.63875L50.5909 11.9302L47.0895 16.5726C46.846 16.8957 46.829 17.3329 47.047 17.6726C48.3094 19.6471 49.2181 21.8026 49.7445 24.0778C49.8663 24.6014 50.3956 24.93 50.9306 24.8103C51.4627 24.6905 51.7967 24.1697 51.675 23.6434C51.1485 21.3737 50.2767 19.2099 49.0765 17.2076L52.6884 12.4176C52.9799 12.0305 52.9403 11.4902 52.5921 11.1477L47.0215 5.66706C46.6734 5.32453 46.1242 5.28554 45.7308 5.57238L40.8622 9.12587C39.0223 8.05927 37.0494 7.25722 34.983 6.7281L34.0942 0.829746C34.0235 0.350749 33.6045 -0.00292969 33.1148 -0.00292969H25.2345C24.7448 -0.00292969 24.3259 0.350749 24.2551 0.829746L23.3663 6.7281C21.3 7.25444 19.3271 8.05927 17.4872 9.12587L12.6186 5.57238C12.2223 5.28275 11.676 5.32453 11.3278 5.66706L5.75722 11.1477C5.40905 11.4902 5.36943 12.0305 5.66098 12.4176L9.27281 17.2076C8.18869 19.0177 7.37348 20.9588 6.83567 22.9917L0.840486 23.8662C0.353625 23.9358 -0.00585938 24.348 -0.00585938 24.8297V32.5828C-0.00585938 33.0674 0.353625 33.4768 0.840486 33.5464L6.83567 34.4208C7.37065 36.4538 8.18869 38.3948 9.27281 40.205L5.66098 44.995C5.36943 45.3821 5.40905 45.9223 5.75722 46.2649L11.3278 51.7455C11.676 52.088 12.2251 52.127 12.6186 51.8402L17.4872 48.2867C19.3271 49.3533 21.3 50.1553 23.3663 50.6845L24.2551 56.5828C24.3259 57.0618 24.7448 57.4155 25.2345 57.4155H33.1148C33.6045 57.4155 34.0235 57.0618 34.0942 56.5828L35.0793 50.0356C35.1585 49.5037 34.7849 49.008 34.2442 48.93L34.2471 48.9272Z" fill="white"/>
<path d="M29.178 15.4865C34.324 15.4865 39.085 18.4413 41.307 23.0112C41.542 23.4958 42.1336 23.7019 42.6289 23.4707C43.1214 23.2396 43.3309 22.6576 43.096 22.1702C40.5484 16.9263 35.0854 13.5371 29.178 13.5371C20.6777 13.5371 13.7598 20.3405 13.7598 28.7063C13.7598 37.072 20.6749 43.8755 29.178 43.8755C29.7243 43.8755 30.1687 43.4382 30.1687 42.9008C30.1687 42.3633 29.7243 41.9261 29.178 41.9261C21.7703 41.9261 15.7412 35.9971 15.7412 28.7063C15.7412 21.4155 21.7675 15.4865 29.178 15.4865Z" fill="white"/>
<path d="M67.0004 35.195C67.0004 35.1421 66.9948 35.0892 66.9863 35.0363C66.9863 35.0224 66.9806 35.0057 66.9778 34.9917C66.9665 34.9444 66.9551 34.8998 66.9382 34.8553C66.9353 34.8441 66.9325 34.8358 66.9268 34.8246C66.907 34.7745 66.8787 34.7272 66.8504 34.6798C66.8419 34.6687 66.8334 34.6576 66.8249 34.6436C66.7995 34.6046 66.7683 34.5684 66.7372 34.535C66.7315 34.5267 66.723 34.5183 66.7174 34.5127C66.6777 34.4738 66.6353 34.4375 66.59 34.4069C66.5787 34.3986 66.5674 34.393 66.556 34.3846C66.5362 34.3735 66.5192 34.3596 66.4994 34.3484L52.4059 26.4673C52.1031 26.2974 51.7294 26.2974 51.4265 26.4673L37.333 34.3484C37.3132 34.3596 37.2962 34.3735 37.2764 34.3846C37.2651 34.393 37.2538 34.3986 37.2425 34.4069C37.1972 34.4403 37.1547 34.4738 37.1151 34.5127C37.1066 34.5211 37.1009 34.5294 37.0953 34.535C37.0641 34.5684 37.0358 34.6046 37.0075 34.6436C36.999 34.6548 36.9905 34.6687 36.9821 34.6798C36.9537 34.7272 36.9283 34.7745 36.9056 34.8246C36.9 34.8358 36.9 34.8469 36.8943 34.8553C36.8773 34.8998 36.866 34.9444 36.8547 34.989C36.8518 35.0029 36.849 35.0196 36.8462 35.0335C36.8377 35.0864 36.832 35.1393 36.832 35.1922C36.832 35.195 36.832 35.2006 36.832 35.2034C36.832 35.2034 36.832 35.209 36.832 35.2117L37.1604 51.1579C37.166 51.4977 37.3529 51.8096 37.6529 51.9822L51.4209 59.8634C51.4209 59.8634 51.4237 59.8634 51.4265 59.8634C51.452 59.8773 51.4775 59.8885 51.503 59.9024C51.5171 59.908 51.5284 59.9163 51.5426 59.9219C51.5681 59.933 51.5964 59.9414 51.6247 59.9497C51.6388 59.9553 51.653 59.9581 51.6643 59.9637C51.7011 59.9748 51.7407 59.9804 51.7804 59.9859C51.7832 59.9859 51.786 59.9859 51.7917 59.9859C51.8341 59.9915 51.8766 59.9943 51.9219 59.9943C52.0719 59.9943 52.2219 59.9581 52.3635 59.8885C52.3805 59.8801 52.3974 59.8718 52.4144 59.8634L66.1824 51.9822C66.4824 51.8123 66.6664 51.5004 66.6749 51.1579L67.0033 35.2117C67.0033 35.2117 67.0033 35.2062 67.0033 35.2034C67.0033 35.2006 67.0033 35.195 67.0033 35.1922L67.0004 35.195ZM51.9134 41.9567L46.64 39.0075L58.7295 32.2459L64.0028 35.195L51.9134 41.9567ZM51.9134 28.4334L56.7254 31.1236L44.636 37.8852L39.824 35.195L51.9134 28.4334ZM39.1276 50.5759L38.8474 36.891L50.9255 43.6443V57.3292L39.1276 50.5759ZM52.9069 57.332V43.6471L64.9851 36.8938L64.7048 50.5786L52.9069 57.332Z" fill="white"/>
<path d="M59.7934 49.3533L54.0105 52.3471C53.5265 52.5977 53.3397 53.1881 53.5944 53.6643C53.7728 53.9957 54.1153 54.1851 54.4719 54.1851C54.6276 54.1851 54.7861 54.1489 54.9333 54.0737L60.7162 51.08C61.2002 50.8293 61.387 50.2389 61.1323 49.7627C60.8775 49.2865 60.2775 49.1027 59.7934 49.3533Z" fill="white"/>
<path d="M59.7934 46.1229L54.0105 49.1166C53.5265 49.3672 53.3397 49.9576 53.5944 50.4338C53.7728 50.7652 54.1153 50.9546 54.4719 50.9546C54.6276 50.9546 54.7861 50.9184 54.9333 50.8432L60.7162 47.8495C61.2002 47.5989 61.387 47.0085 61.1323 46.5322C60.8775 46.056 60.2775 45.8722 59.7934 46.1229Z" fill="white"/>
</g>
<defs>
<clipPath id="clip0_245_136">
<rect width="67" height="60" fill="white"/>
</clipPath>
</defs>
</svg>
